HIERARCHY
ROOT Hip
{
	OFFSET -3.71821 12.253 182.825
	CHANNELS 6 Xposition Yposition Zposition Zrotation Xrotation Yrotation
	JOINT Spine
	{
		OFFSET 0.43675 6.75223 6.24875
		CHANNELS 3 Zrotation Xrotation Yrotation
		JOINT ShoulderCenter
		{
			OFFSET 20.7539 33.4105 7.04953
			CHANNELS 3 Zrotation Xrotation Yrotation
			JOINT Head
			{
				OFFSET 3.0452 17.4688 4.55963
				CHANNELS 3 Zrotation Xrotation Yrotation
				End Site
				{
					OFFSET 0.0 0.0 0.0
				}
			}
			JOINT ShoulderLeft
			{
				OFFSET 0.851723 -12.5863 2.12776
				CHANNELS 3 Zrotation Xrotation Yrotation
				JOINT ElbowLeft
				{
					OFFSET 2.49071 -19.2481 0.357346
					CHANNELS 3 Zrotation Xrotation Yrotation
					JOINT WristLeft
					{
						OFFSET 7.51721 -18.0294 -3.79968
						CHANNELS 3 Zrotation Xrotation Yrotation
						JOINT HandLeft
						{
							OFFSET 0.538496 -2.00533 0.389679
							CHANNELS 3 Zrotation Xrotation Yrotation
							End Site
							{
								OFFSET 0.0 0.0 0.0
							}
						}
					}
				}
			}
			JOINT ShoulderRight
			{
				OFFSET -22.611 -2.83495 -14.4611
				CHANNELS 3 Zrotation Xrotation Yrotation
				JOINT ElbowRight
				{
					OFFSET -21.9903 -10.1065 -10.2751
					CHANNELS 3 Zrotation Xrotation Yrotation
					JOINT WristRight
					{
						OFFSET -5.01703 -18.6713 -9.1375
						CHANNELS 3 Zrotation Xrotation Yrotation
						JOINT HandRight
						{
							OFFSET -1.77801 -5.05692 -2.63652
							CHANNELS 3 Zrotation Xrotation Yrotation
							End Site
							{
								OFFSET 0.0 0.0 0.0
							}
						}
					}
				}
			}
		}
	}
	JOINT HipLeft
	{
		OFFSET 2.5083 -7.20312 1.013
		CHANNELS 3 Zrotation Xrotation Yrotation
		JOINT KneeLeft
		{
			OFFSET 5.78703 -42.0832 -4.33661
			CHANNELS 3 Zrotation Xrotation Yrotation
			JOINT AnkleLeft
			{
				OFFSET 2.67914 -28.9865 -2.25533
				CHANNELS 3 Zrotation Xrotation Yrotation
				JOINT FootLeft
				{
					OFFSET 5.00382 -4.15814 -7.4735
					CHANNELS 3 Zrotation Xrotation Yrotation
					End Site
					{
						OFFSET 0.0 0.0 0.0
					}
				}
			}
		}
	}
	JOINT HipRight
	{
		OFFSET -8.18104 -3.61377 -4.96124
		CHANNELS 3 Zrotation Xrotation Yrotation
		JOINT KneeRight
		{
			OFFSET -6.0395 -46.298 -0.843109
			CHANNELS 3 Zrotation Xrotation Yrotation
			JOINT AnkleRight
			{
				OFFSET -1.87393 -29.7811 2.05482
				CHANNELS 3 Zrotation Xrotation Yrotation
				JOINT FootRight
				{
					OFFSET 4.75426 -4.63912 -6.17746
					CHANNELS 3 Zrotation Xrotation Yrotation
					End Site
					{
						OFFSET 0.0 0.0 0.0
					}
				}
			}
		}
	}
}

MOTION
Frames: 30
Frame Time: 0.033333
-3.70825 12.247 182.823 -0.78538 0 0 0 0 nan -1.5708 0 0 0 0 nan 0.7854 0 1.5708 1.5708 0 1.5708 1.5708 0 1.5708 1.5708 0 nan -1.5708 0 0 0.734246 0 nan 0 0 1.5708 nan 0 nan 0.0186398 0 nan 0 0 1.5708 0 -0.0121293 0 -4.04487e-12 0 nan 1.57079 0 1.5708 -2.99298e-12 -1.55653 0 nan 0 1.5708 0 -1.5708 0 
-3.69853 12.2418 182.821 1.5708 0 1.5708 -1.5708 -2.26273e-37 0 -0.784209 0 0 -1.5708 -6.06732e-12 6.44597e-43 0 0 1.5708 0.785342 0 1.5708 1.5708 0 1.5708 1.5708 0 nan -1.5708 0 0 0.734246 0 nan 0 0 1.5708 nan 0 nan 0.0186398 0 nan 0 0 1.5708 0 -0.0121293 0 -4.04487e-12 0 nan 1.57079 0 1.5708 -2.99298e-12 -1.55653 0 nan 0 1.5708 0 -1.5708 0 
-3.68893 12.237 182.819 -0.78538 0 0 0 0 nan -1.5708 0 0 0 0 nan 0.7854 0 1.5708 1.5708 0 1.5708 1.5708 0 1.5708 1.5708 0 nan -1.5708 0 0 0.734246 0 nan 0 0 1.5708 nan 0 nan 0.0186398 0 nan 0 0 1.5708 0 -0.0121293 0 -4.04487e-12 0 nan 1.57079 0 1.5708 -2.99298e-12 -1.55653 0 nan 0 1.5708 0 -1.5708 0 
-3.68064 12.2325 182.817 1.5708 0 1.5708 -1.5708 -2.26273e-37 0 -0.784209 0 0 -1.5708 -6.06732e-12 6.44597e-43 0 0 1.5708 0.785342 0 1.5708 1.5708 0 1.5708 1.5708 0 nan -1.5708 0 0 0.734246 0 nan 0 0 1.5708 nan 0 nan 0.0186398 0 nan 0 0 1.5708 0 -0.0121293 0 -4.04487e-12 0 nan 1.57079 0 1.5708 -2.99298e-12 -1.55653 0 nan 0 1.5708 0 -1.5708 0 
-3.67301 12.2288 182.815 1.5708 0 1.5708 -1.5708 -2.26273e-37 0 -0.784209 0 0 -1.5708 -6.06732e-12 6.44597e-43 0 0 1.5708 0.785342 0 1.5708 1.5708 0 1.5708 1.5708 0 nan -1.5708 0 0 0.734246 0 nan 0 0 1.5708 nan 0 nan 0.0186398 0 nan 0 0 1.5708 0 -0.0121293 0 -4.04487e-12 0 nan 1.57079 0 1.5708 -2.99298e-12 -1.55653 0 nan 0 1.5708 0 -1.5708 0 
-3.6703 12.2276 182.81 0 0 1.5708 -1.5708 -2.26273e-37 0 0 0 0 -1.5708 -6.06732e-12 6.44597e-43 0 0 1.5708 1.5708 0 1.5708 1.5708 0 1.5708 1.5708 0 nan -1.5708 0 0 0.734246 0 nan 0 0 1.5708 nan 0 nan 0.0186398 0 nan 0 0 1.5708 0 -0.0121293 0 -4.04487e-12 0 nan 1.57079 0 1.5708 -2.99298e-12 -1.55653 0 nan 0 1.5708 0 -1.5708 0 
-3.66745 12.2267 182.806 1.5708 0 1.5708 -1.5708 -2.26273e-37 0 -0.784209 0 0 -1.5708 -6.06732e-12 6.44597e-43 0 0 1.5708 0.785342 0 1.5708 1.5708 0 1.5708 1.5708 0 nan -1.5708 0 0 0.734246 0 nan 0 0 1.5708 nan 0 nan 0.0186398 0 nan 0 0 1.5708 0 -0.0121293 0 -4.04487e-12 0 nan 1.57079 0 1.5708 -2.99298e-12 -1.55653 0 nan 0 1.5708 0 -1.5708 0 
-3.66515 12.2263 182.802 1.5708 0 1.5708 -1.5708 -2.26273e-37 0 -0.784209 0 0 -1.5708 -6.06732e-12 6.44597e-43 0 0 1.5708 0.785342 0 1.5708 1.5708 0 1.5708 1.5708 0 nan -1.5708 0 0 0.734246 0 nan 0 0 1.5708 nan 0 nan 0.0186398 0 nan 0 0 1.5708 0 -0.0121293 0 -4.04487e-12 0 nan 1.57079 0 1.5708 -2.99298e-12 -1.55653 0 nan 0 1.5708 0 -1.5708 0 
-3.6633 12.2261 182.798 -0.78538 0 0 0 0 nan -1.5708 0 0 0 0 nan 0.7854 0 1.5708 1.5708 0 1.5708 1.5708 0 1.5708 1.5708 0 nan -1.5708 0 0 0.734246 0 nan 0 0 1.5708 nan 0 nan 0.0186398 0 nan 0 0 1.5708 0 -0.0121293 0 -4.04487e-12 0 nan 1.57079 0 1.5708 -2.99298e-12 -1.55653 0 nan 0 1.5708 0 -1.5708 0 
-3.6569 12.2312 182.796 -0.78538 0 0 0 0 nan -1.5708 0 0 0 0 nan 0.7854 0 1.5708 1.5708 0 1.5708 1.5708 0 1.5708 1.5708 0 nan -1.5708 0 0 0.734246 0 nan 0 0 1.5708 nan 0 nan 0.0186398 0 nan 0 0 1.5708 0 -0.0121293 0 -4.04487e-12 0 nan 1.57079 0 1.5708 -2.99298e-12 -1.55653 0 nan 0 1.5708 0 -1.5708 0 
-3.64535 12.2475 182.799 1.5708 0 1.5708 -1.5708 -2.26273e-37 0 -0.784209 0 0 -1.5708 -6.06732e-12 6.44597e-43 0 0 1.5708 0.785342 0 1.5708 1.5708 0 1.5708 1.5708 0 nan -1.5708 0 0 0.734246 0 nan 0 0 1.5708 nan 0 nan 0.0186398 0 nan 0 0 1.5708 0 -0.0121293 0 -4.04487e-12 0 nan 1.57079 0 1.5708 -2.99298e-12 -1.55653 0 nan 0 1.5708 0 -1.5708 0 
-3.62645 12.5337 182.85 -0.78538 0 0 0 0 nan -1.5708 0 0 0 0 nan 0.7854 0 1.5708 1.5708 0 1.5708 1.5708 0 1.5708 1.5708 0 nan -1.5708 0 0 0.734246 0 nan 0 0 1.5708 nan 0 nan 0.0186398 0 nan 0 0 1.5708 0 -0.0121293 0 -4.04487e-12 0 nan 1.57079 0 1.5708 -2.99298e-12 -1.55653 0 nan 0 1.5708 0 -1.5708 0 
-3.55932 12.9288 182.951 1.5708 0 1.5708 -1.5708 -2.26273e-37 0 -0.784209 0 0 -1.5708 -6.06732e-12 6.44597e-43 0 0 1.5708 0.785342 0 1.5708 1.5708 0 1.5708 1.5708 0 nan -1.5708 0 0 0.734246 0 nan 0 0 1.5708 nan 0 nan 0.0186398 0 nan 0 0 1.5708 0 -0.0121293 0 -4.04487e-12 0 nan 1.57079 0 1.5708 -2.99298e-12 -1.55653 0 nan 0 1.5708 0 -1.5708 0 
-3.45996 13.4458 183.099 1.5708 0 1.5708 -1.5708 -2.26273e-37 0 -0.784209 0 0 -1.5708 -6.06732e-12 6.44597e-43 0 0 1.5708 0.785342 0 1.5708 1.5708 0 1.5708 1.5708 0 nan -1.5708 0 0 0.734246 0 nan 0 0 1.5708 nan 0 nan 0.0186398 0 nan 0 0 1.5708 0 -0.0121293 0 -4.04487e-12 0 nan 1.57079 0 1.5708 -2.99298e-12 -1.55653 0 nan 0 1.5708 0 -1.5708 0 
-3.39058 13.872 183.228 -0.78538 0 0 0 0 nan -1.5708 0 0 0 0 nan 0.7854 0 1.5708 1.5708 0 1.5708 1.5708 0 1.5708 1.5708 0 nan -1.5708 0 0 0.730313 0 nan 0 0 1.5708 nan 0 nan 0.0186398 0 nan 0 0 1.5708 0 -0.0121293 0 -4.04487e-12 0 nan 1.57079 0 1.5708 -2.99298e-12 -1.55653 0 nan 0 1.5708 0 -1.5708 0 
-3.36354 14.2537 183.342 1.5708 0 1.5708 -1.5708 -2.26273e-37 0 -0.784209 0 0 -1.5708 -6.06732e-12 6.44597e-43 0 0 1.5708 0.785342 0 1.5708 1.5708 0 1.5708 1.5708 0 nan -1.5708 0 0 0.730313 0 nan 0 0 1.5708 nan 0 nan 0.0186398 0 nan 0 0 1.5708 0 -0.0121293 0 -4.04487e-12 0 nan 1.57079 0 1.5708 -2.99298e-12 -1.55653 0 nan 0 1.5708 0 -1.5708 0 
-3.34441 14.5768 183.45 -0.78538 0 0 0 0 nan -1.5708 0 0 0 0 nan 0.7854 0 1.5708 1.5708 0 1.5708 1.5708 0 1.5708 1.5708 0 nan -1.5708 0 0 0.730313 0 nan 0 0 1.5708 nan 0 nan 0.0186398 0 nan 0 0 1.5708 0 -0.0121293 0 -4.04487e-12 0 nan 1.57079 0 1.5708 -2.99298e-12 -1.55653 0 nan 0 1.5708 0 -1.5708 0 
-3.3506 14.9622 183.588 -0.78538 0 0 0 0 nan -1.5708 0 0 0 0 nan 0.7854 0 1.5708 1.5708 0 1.5708 1.5708 0 1.5708 1.5708 0 nan -1.5708 0 0 0.730313 0 nan 0 0 1.5708 nan 0 nan 0.0186398 0 nan 0 0 1.5708 0 -0.0121293 0 -4.04487e-12 0 nan 1.57079 0 1.5708 -2.99298e-12 -1.55653 0 nan 0 1.5708 0 -1.5708 0 
-3.33607 15.2841 183.74 -0.78538 0 0 0 0 nan -1.5708 0 0 0 0 nan 0.7854 0 1.5708 1.5708 0 1.5708 1.5708 0 1.5708 1.5708 0 nan -1.5708 0 0 0.730313 0 nan 0 0 1.5708 nan 0 nan 0.0186398 0 nan 0 0 1.5708 0 -0.0121293 0 -4.04487e-12 0 nan 1.57079 0 1.5708 -2.99298e-12 -1.55653 0 nan 0 1.5708 0 -1.5708 0 
-3.30894 15.5528 183.887 1.5708 0 1.5708 -1.5708 -2.26273e-37 0 -0.784209 0 0 -1.5708 -6.06732e-12 6.44597e-43 0 0 1.5708 0.785342 0 1.5708 1.5708 0 1.5708 1.5708 0 nan -1.5708 0 0 0.730313 0 nan 0 0 1.5708 nan 0 nan 0.0186398 0 nan 0 0 1.5708 0 -0.0121293 0 -4.04487e-12 0 nan 1.57079 0 1.5708 -2.99298e-12 -1.55653 0 nan 0 1.5708 0 -1.5708 0 
-3.28524 15.7688 184.008 1.5708 0 1.5708 -1.5708 -2.26273e-37 0 -0.784209 0 0 -1.5708 -6.06732e-12 6.44597e-43 0 0 1.5708 0.785342 0 1.5708 1.5708 0 1.5708 1.5708 0 nan -1.5708 0 0 0.730313 0 nan 0 0 1.5708 nan 0 nan 0.0186398 0 nan 0 0 1.5708 0 -0.0121293 0 -4.04487e-12 0 nan 1.57079 0 1.5708 -2.99298e-12 -1.55653 0 nan 0 1.5708 0 -1.5708 0 
-3.21977 15.9771 184.156 1.5708 0 1.5708 -1.5708 -2.26273e-37 0 -0.784209 0 0 -1.5708 -6.06732e-12 6.44597e-43 0 0 1.5708 0.785342 0 1.5708 1.5708 0 1.5708 1.5708 0 nan -1.5708 0 0 0.730313 0 nan 0 0 1.5708 nan 0 nan 0.0186398 0 nan 0 0 1.5708 0 -0.0121293 0 -4.04487e-12 0 nan 1.57079 0 1.5708 -2.99298e-12 -1.55653 0 nan 0 1.5708 0 -1.5708 0 
-3.12307 16.186 184.318 -0.78538 0 0 0 0 nan -1.5708 0 0 0 0 nan 0.7854 0 1.5708 1.5708 0 1.5708 1.5708 0 1.5708 1.5708 0 nan -1.5708 0 0 0.730313 0 nan 0 0 1.5708 nan 0 nan 0.0186398 0 nan 0 0 1.5708 0 -0.0121293 0 -4.04487e-12 0 nan 1.57079 0 1.5708 -2.99298e-12 -1.55653 0 nan 0 1.5708 0 -1.5708 0 
-3.03708 16.3401 184.45 -0.78538 0 0 0 0 nan -1.5708 0 0 0 0 nan 0.7854 0 1.5708 1.5708 0 1.5708 1.5708 0 1.5708 1.5708 0 nan -1.5708 0 0 0.730313 0 nan 0 0 1.5708 nan 0 nan 0.0186398 0 nan 0 0 1.5708 0 -0.0121293 0 -4.04487e-12 0 nan 1.57079 0 1.5708 -2.99298e-12 -1.55653 0 nan 0 1.5708 0 -1.5708 0 
-2.95051 16.4588 184.57 -0.78538 0 0 0 0 nan -1.5708 0 0 0 0 nan 0.7854 0 1.5708 1.5708 0 1.5708 1.5708 0 1.5708 1.5708 0 nan -1.5708 0 0 0.730313 0 nan 0 0 1.5708 nan 0 nan 0.0186398 0 nan 0 0 1.5708 0 -0.0121293 0 -4.04487e-12 0 nan 1.57079 0 1.5708 -2.99298e-12 -1.55653 0 nan 0 1.5708 0 -1.5708 0 
-2.87586 16.5408 184.669 1.5708 0 1.5708 -1.5708 -2.26273e-37 0 -0.784209 0 0 -1.5708 -6.06732e-12 6.44597e-43 0 0 1.5708 0.785342 0 1.5708 1.5708 0 1.5708 1.5708 0 nan -1.5708 0 0 0.730313 0 nan 0 0 1.5708 nan 0 nan 0.0186398 0 nan 0 0 1.5708 0 -0.0121293 0 -4.04487e-12 0 nan 1.57079 0 1.5708 -2.99298e-12 -1.55653 0 nan 0 1.5708 0 -1.5708 0 
-2.80795 16.6004 184.759 1.5708 0 1.5708 -1.5708 -2.26273e-37 0 -0.784209 0 0 -1.5708 -6.06732e-12 6.44597e-43 0 0 1.5708 0.785342 0 1.5708 1.5708 0 1.5708 1.5708 0 nan -1.5708 0 0 0.730313 0 nan 0 0 1.5708 nan 0 nan 0.0186398 0 nan 0 0 1.5708 0 -0.0121293 0 -4.04487e-12 0 nan 1.57079 0 1.5708 -2.99298e-12 -1.55653 0 nan 0 1.5708 0 -1.5708 0 
-2.75862 16.6406 184.831 1.5708 0 1.5708 -1.5708 -2.26273e-37 0 -0.784209 0 0 -1.5708 -6.06732e-12 6.44597e-43 0 0 1.5708 0.785342 0 1.5708 1.5708 0 1.5708 1.5708 0 nan -1.5708 0 0 0.730313 0 nan 0 0 1.5708 nan 0 nan 0.0186398 0 nan 0 0 1.5708 0 -0.0121293 0 -4.04487e-12 0 nan 1.57079 0 1.5708 -2.99298e-12 -1.55653 0 nan 0 1.5708 0 -1.5708 0 
-2.72675 16.6664 184.89 -0.78538 0 0 0 0 nan -1.5708 0 0 0 0 nan 0.7854 0 1.5708 1.5708 0 1.5708 1.5708 0 1.5708 1.5708 0 nan -1.5708 0 0 0.730313 0 nan 0 0 1.5708 nan 0 nan 0.0186398 0 nan 0 0 1.5708 0 -0.0121293 0 -4.04487e-12 0 nan 1.57079 0 1.5708 -2.99298e-12 -1.55653 0 nan 0 1.5708 0 -1.5708 0 
-2.71148 16.6844 184.941 1.5708 0 1.5708 -1.5708 -2.26273e-37 0 -0.784209 0 0 -1.5708 -6.06732e-12 6.44597e-43 0 0 1.5708 0.785342 0 1.5708 1.5708 0 1.5708 1.5708 0 nan -1.5708 0 0 0.730313 0 nan 0 0 1.5708 nan 0 nan 0.0186398 0 nan 0 0 1.5708 0 -0.0121293 0 -4.04487e-12 0 nan 1.57079 0 1.5708 -2.99298e-12 -1.55653 0 nan 0 1.5708 0 -1.5708 0 
